# xmcd
#
# Track frame offsets: 
#        180
#        13143
#        29277
#        42422
#        55889
#        66982
#        75605
#        82592
#        90355
#        97339
#        107331
#        117318
#        131619
#        141635
#        149826
#        159193
#        171485
#        184954
#        199011
#        209261
#        222162
#        236000
#        246016
#        257040
#        268144
#        274263
#
# Disc length: 3836 seconds
#
# Revision: 0
# Processed by: cddbd v1.5.2PL0 Copyright (c) Steve Scherf et al.
# Submitted via: ExactAudioCopy v0.99pb5
#
DISCID=860efa1a
DTITLE=Bashville Brother Oswald - The Best Of Oswald - Dobro Dreamland
DYEAR=1986
DGENRE=Country
TTITLE0=The Best of Oswald
TTITLE1=Euneta
TTITLE2=Isle of Golden Dreams
TTITLE3=End of the World
TTITLE4=Oswald's Special
TTITLE5=Mansion on a Hill
TTITLE6=The Great Speckled Bird
TTITLE7=The Wabash Cannon Ball
TTITLE8=King's Serenade
TTITLE9=Song of the Islands
TTITLE10=Farewell Blues
TTITLE11=I Walk Alone
TTITLE12=Island March
TTITLE13=Aloha
TTITLE14=Fireball Mail Medley
TTITLE15=Nobody's Darling But Mine
TTITLE16=In the Pines
TTITLE17=Silver Haired Daddy of Mine
TTITLE18=The Streamlined Cannonball
TTITLE19=When My Blue Moon Turns to Gold Again
TTITLE20=Pins and Needles in My Heart
TTITLE21=I'm So Lonesome I Could Cry
TTITLE22=Blue Eyes Crying in the Rain
TTITLE23=Beneath the Willow
TTITLE24=Low and Lonely
TTITLE25=My Tennessee Sweetheart
EXTD=
EXTT0=
EXTT1=
EXTT2=
EXTT3=
EXTT4=
EXTT5=
EXTT6=
EXTT7=
EXTT8=
EXTT9=
EXTT10=
EXTT11=
EXTT12=
EXTT13=
EXTT14=
EXTT15=
EXTT16=
EXTT17=
EXTT18=
EXTT19=
EXTT20=
EXTT21=
EXTT22=
EXTT23=
EXTT24=
EXTT25=
PLAYORDER=
